/* XPM */
static char *_d42146873fc4acfef72ff2f478a4845[] = {
/* columns rows colors chars-per-pixel */
"80 80 90 1 ",
"  c #273C4F",
". c #293E4F",
"X c #313E4E",
"o c #273D50",
"O c #293E50",
"+ c #313F50",
"@ c #2C404F",
"# c #33414E",
"$ c #39444E",
"% c #2D4252",
"& c #314453",
"* c #3A4550",
"= c #344956",
"- c #3B4954",
"; c #334758",
": c #364B59",
"> c #3A4D5D",
", c #3E515F",
"< c #3B4F60",
"1 c #3E5160",
"2 c #414E5C",
"3 c #45525D",
"4 c #4B555C",
"5 c #425564",
"6 c #465966",
"7 c #4D5A65",
"8 c #475969",
"9 c #4D5E6D",
"0 c #525D69",
"q c #4F606F",
"w c #51616E",
"e c #4F6170",
"r c #516270",
"t c #566874",
"y c #596975",
"u c #5D6D7A",
"i c #646E7A",
"p c #657074",
"a c #63727E",
"s c #6C757B",
"d c #657481",
"f c #697782",
"g c #6D7A84",
"h c #6F7D89",
"j c #727C85",
"k c #717F8A",
"l c #74828D",
"z c #778490",
"x c #798691",
"c c #7E8B95",
"v c #808C97",
"b c #828E99",
"n c #888F99",
"m c #85919A",
"M c #8A939C",
"N c #8C97A0",
"B c #8F9AA3",
"V c #929DA5",
"C c #95A0A7",
"Z c #9CA2A5",
"A c #96A1A9",
"S c #9DA6AE",
"D c #9EA8AF",
"F c #9FA8B0",
"G c #A2ABB2",
"H c #AAAFB6",
"J c #ACB4BB",
"K c #B1B7BC",
"L c #B5BCC2",
"P c #BBC1C5",
"I c #BDC4C9",
"U c #C1C6CB",
"Y c #C4C9CE",
"T c #C8CBCD",
"R c #C7CCD1",
"E c #C9CED2",
"W c #CDD1D5",
"Q c #CFD4D8",
"! c #D1D4D6",
"~ c #D3D7DB",
"^ c #D5D9DC",
"/ c #D8DCDF",
"( c #DCDFE1",
") c #DEE1E4",
"_ c #E1E4E6",
"` c #E4E6E8",
"' c #E7E9EB",
"] c #E9EAEC",
"[ c #F3F4F5",
"{ c #FAFAFB",
/* pixels */
" OO    o           oooooo oOO&:::;%%%.@   @@ ooooo@oo@o@  @ o  oOoOOoOOoOo    .o",
" 8q99099e9er9r9e9909qq99eeew00tyuuyttrrqqqqqqeeeeooooo   @   @oooOoOOooOoO      ",
"o)[[[[[[[[[]][[[[[[[[[[[[[[[[[[[[[[[[[[[[[[[[[[[{@@ @ @oo o@ oooOoOooOoOOoO.o  .",
"o~SNBBNBBBBBBBBBBBNBBBNBNBBNBBNBBVVACCVVBBNBNBNC'@oooo oo@o  @oooOoOOoOooOo.. . ",
"o~e             o   . oo   O....@@==;:=&ooooo@@>'@  @o@oo@@   oooOoOoooOOooOo. .",
"o~e                    oooO ...O@@@@=::==%%@ooo>'@o@ oooooo  @o@OoOo@ %ooOOoO . ",
" ~e .          +       oooo    O@@@@&=::===o@o@>'@oo@ooo@o ooo@oooo@oooOOOoOOooo",
" ~eo               o. oOoooO   +@ @@@@=:====%oo>'@oooo@o@o@  @oo  o o@.OOoOooOoo",
" Q0o   ++             o   .  +O   @  @@&==:==oo>)@@ @  @oo @o@o   @ . . oOoOOooo",
"oRdo              o  oO   o    O @ @@ @@&=::=%o>'@ @  @ o@@   @   o  . .ooOooOoo",
"oQ0o            .   ooo. .   o   @   @.@%%===%%,'%@ @  @ @oo @ o @  .. ooooOOooo",
"oQ0               o.ooo   . oo  oo @@ ..@%%%=;=6'=@  @ @@  @@o @ o @O ... .. .  ",
"oQd             o   ooo. . .       o  .o@@@@%;;6'=%%  @  o@oooooo@o  . oo . @ooo",
"oQ8            +.   ooo o .  o +     @.     %%;q]>=%@@ @@@ oo@o@o@  ..  O...oo@o",
"oW9o               ooo    o   oo   @ .o.@ @@@%%8]>==%@@@o @oooo@@  @o..@o.OO@o@o",
"oRd      +       .     o.. .  oo@o    .     @@%1'>:==%% @@oo@@oo o@  @ .OoOOoooo",
"oQ0ooooo                      oo    .  .Ooo..@.,]::::=%@@@@@@ @ @    @o@o@o@o@oo",
"oQ9ooooo                     +oo @ o   ooOooO..,'==:>:==@@@@ @ @ @@     @ ooooo%",
"oQdo  o                           @ o  .Ooo  @.>`%%==::=%@@@@ @     @ @@oo@oo@oo",
"oQ8                             o@  . .  Oo@  .,'%@%==::==&@@@@ @ @@    @@o@oo% ",
" Q9 o            +          oo     @  ....oO...>'%@@@%=::::%@@@o @      o%@o%oo%",
" Rdo                       +ooo    o  .o OO%%O.-I%@@@@%;:>::%@@@@ @ @ @@oooo@oo@",
" Q9o                     +  oo      o oOoO%%%OX.@@@ @@@%=::>;;@@ @ @@   @o@%oo%o",
"oQ9                        o      @ ooooO%;%&...@@@@ @@@%=::::%%@ @ @  @o@oo@o o",
"o~d               + ooo o   +   o  @   @O&&&%O.X@...@  @@%%=:::=%@@@ @@ OOOO%ooo",
"oQ8                 ooo          @o  oooO%%O+O.+&@..  @ @@@%=::===%@   @OOOOoo@@",
" W8                 oooo            oo@@%%@XOX++&...@  @@ @@%==>:==@@@  OOOOoOoo",
" Rd                 ooo    + + o   @ooo%%%..XX#&&#.@ @@ @@@ @@==:==&@@@ .OOOOO@o",
" Qd                            +     @@%#...X+#+#&..@ @@ @ @%@%%=::==%@@O..O @o@",
"o~8                       oo    o @ o@%%...XXX*$&X++ @  @ @ @@@@&=:,==&%@@.O@   ",
"o~d                +     ooo    ooo%%;;%..XX##&###+.   @ @ @  @@@&==::=&%@%.@ @ ",
"oQ8                      +oo    o@%%;;%%..X###$$##&.@ @ @ @ @@ @@@&==,:=&&@. @ @",
"oQeo        oooooooooooo   oooo%o@%;;%%oXXXX$$$X$$XXX. OOOOOO...OO%%;=:::=#@@@@@",
"oQeo        oo<hzzkzzzto  oo%ehzld1:;% %XX2sX$$$XpsX..-jzzzzl5..O%w%@&=:::=@,u=@",
"oQ8o        oo<R(([`((Vo oo;hI))))A1%@@@$X0^$$$$7~S-..9))(((^u..o:L5@@&=-::=aP,@",
"o~<       oooooddd(Add8o  ol/PzdlV)G<oo%$$0!$$$2Z!0+..q~cdfdd>..o:)B%%%&=:-:lI,@",
"o~eo            oo~k     o1(J1%%&<z_c%O&X$4^$$4s_v-@@.wW9@   .@oo:)(yO@@&--:lU3%",
"oQeo            oo(k o   %FE8 %%&%&B(1O+X$0^$$4PP4$#..wWqo@@.o@o%:(WJ-..@@=:lY6-",
"o~eo            oo~kooooo1)l% %;&oO:^NO&$$0!$$n(p$$...0W9 @  @  .-/m(z..@@@&sY6:",
"oQeo            oo(koooooz/;  %%%OooVY2+$$0!$4!Z$$#...9T9@ o@ @oO;/rG~5.@@@@gY6:",
"oQeooooo        oo~koooo;LSo o@@OOOOy^r++X0~2KT4$XXX O0Wq @oo o o;(r5QFO@..@fY6:",
"oQeooooo        oo(zoooo<Rh oo@@OoOo<WjO+#0~s_s2#X .OOeEq @% @ @%;/r%l_y...@aU,=",
"oQeooooo        o Qk  oo1^d%@@o OooOoLNXX$0(TG2X#X..O.e~xdddu: @.;/e.;LL:O..fU>%",
"oQeooooo          Qk   o1Qe%%@oooOoOoLVOXX0]]pXXXXXXO+q_)')))t  o:/e..y)l&.@aU>%",
"oQ8oo             (k    8(e%%@o@OooOOLVO+&0]_xXXXXXX%.0~clllh:@@ :/e..OFR9..dU<%",
"oQeo              ~k    1^u%%o@oOooOoLBo++0(V!0XXXXX+OrWe@oo o@o%:/e...6!A;.dU>O",
"oQ8o              (h    <Il%%o@oOOO%1EzoO&0!4WSXXXXX%OeWe%@o%o @.;/e.%..z^a dI<O",
"o~8               Qg    %LA%o ooOO%%tQto++0~Xk/s.XXX%@eE9%oo o@ %;/q. ..>LI;dI<O",
"o~eo              ~l    @cQ=o o@OOOOcE5Oo+0~X+KU$XXX+OrErOo% O...;(e.@ .%u)ldI1o",
"oQeo              ^l    @e'uo ooOOoOQS+Oo+0~XX0/nXXX++0Q9O @OO..%:/e. @. %A(zI<o",
"o~eo              Ql    %:LI<oooOooz(8OO++0QXXXn`4XX++0W9.O.OO@o.;^eO@ .@ >(WI:o",
"oQeo   o        oo^l   @;%e)V<ooOOd)V&OO  0QXXX+TH2X++wW9O..OO..o;(eOOOO o@h[R<o",
"oQeooooo          Ql  %%%@oc)Fterk(I1OOo +0QXXXXi_jXXXwQfqqq9;%oo:(eoooo@oo;PI<o",
"o^eooooo          ^l  %;%@ %c^)Q^_L9%+OO+ 0~XX..XHU7XXw(~WWWRy% @:(e@@o%@oo@dL<o",
"o~eooooo          ce o%%@ o@:dVDSb5O+O +OO2MXX XX7N0XX7VFFDDA9 .o%N1oo ooo o%u%%",
"oQeooooo         @@  @%%   @%%ooooOO++  Oo++XX.XXXXX*X+O@o  % % oooo%o %o@@o%o%o",
"oQ8o                 @%@o.OOOO     .OOOOOOX+&X.XXXXX&X&.o o@oo@o@ @@o@@ @ @ OOo ",
"oRdo                @%@  OOO+O .   XO+..O+O+++XXXXXXX#X.o@oo @@oo@ o@  @ @  OOO%",
"oQ<o              o@%;%   OOOOOO    ....OOO+XXXXXXXXX#&.oo@@o@o   @  @oo @ %@ @ ",
"oQ<                %%%@   OOOoOO    . .OOO.X+&X2^XXXX#.%@ooo@  @ @ o oo@@  @..  ",
"oQd                %;O      O OO+O .   .OOXXXXX2]XXX#XOO@o@o  @o@  @ @o@  @ ..@@",
"oQ8               @%%       o O+%O.O.  XO...XXX2]XXX#X@O%ooo @@  @@  .. @o @ @ .",
"oQ8o             @%%%o      o O&O&..O. .. ..XXX3]XXXX@@o  o@@  @@  @%  @@ o@.. .",
"oQeo            o%=%oo      oooO%OO O.OO  X.XXX3]XXX.Oo %oo@ o@  @  @ @ o @ . %.",
"oQeooooo        o%%%           o%%%. ....    +X2]XXX.X  @o@@ @@ @o @oo @....O.@o",
"oQ8ooooo       o@%%@          oo  o   .   ..XX+2'+.X.X.   o  o  @  @@o@oOOO....O",
"o~do  oo       o%%%o              o   .   ...XX2]+. . X   o @  @ @o @ooo.O%O @  ",
"oQ8o  oo       o%%oo        o@     o .      .XX2'+...     @@ @@o@  @ooo@OO..@o.@",
"oQ8o        oo%%;%           @@    o        XXX2]+  . .X o@   @ @  .ooOOO......O",
"oQeo        oo%%%o    o      oo%o%oo       X  .2]+ + .     @@@ @  %.%oOO.OOO..%O",
"oQeo        o@%%%ooo         o%%%o        . XXX>]+  .    @@  @@  %.@OOOOOOOOOOOO",
"o^<          @;%@ooo      o  oooo              -]O   .    o @   . O.OOOOOOOOOOOO",
"oQdo        o%%% o  oooo     ooooo          oo@:]OOOoo. . .  @ @. @@.OOOOOOOOOOO",
"oQ8o        o%%%    oooo     ooooo    ooo @ ooo<'OOOoo. o. . @@ @@@ ..OOOOOOOO.O",
"o~eo  oo    %;%o   ooooo               o    ooo:]Oooooo.  .. @@@@@@@%.O.O.OOOOOO",
"oQ8o  oo  oo%%oo  oooooo            o     o   o<]Oooo      @@%%%%@@ .%O.OOOOOOOO",
"o~8oo  o  oO&+oo    oooooooo o  ooo   oo   @o o<]oooooo @  .@%===%@@@@..OOOOOOOO",
"o^LFSSSSSAFFFFFFDDDDDDDDDDDDDDDDDDDDDDDDDDDDDDDG'+oooooo   @@&===&&@@@.@OOOOOOOO",
"o)[[[[[[[[[{{[[[[[[[[[[[[[[[[[[[{[[[[[[[{[[{{[[[{Ooooooo   @======&&@@@..OOOOOOO",
"<<<<<<<<<285<<<<<<<<<<<<<<<<<<<<<<<<<<<:<><><<<<<ooooooo @@%&===-=&&@@@..OOOOOO."
};
