/* XPM */
static char *b162fa0d88584fe384420ad7b2d3031d[] = {
/* columns rows colors chars-per-pixel */
"32 32 58 1 ",
"  c #273C4F",
". c #293E4F",
"X c #313F4E",
"o c #273D50",
"O c #293E50",
"+ c #303F50",
"@ c #2C404F",
"# c #33414F",
"$ c #38444E",
"% c #2C4152",
"& c #324554",
"* c #344957",
"= c #334758",
"- c #364A5A",
"; c #3B4D5C",
": c #3D505F",
"> c #3B4F60",
", c #3F5263",
"< c #404B53",
"1 c #415363",
"2 c #4D5966",
"3 c #475969",
"4 c #4B5D6B",
"5 c #50616D",
"6 c #5A656E",
"7 c #546572",
"8 c #5C6974",
"9 c #5D6D79",
"0 c #626D73",
"q c #62727F",
"w c #6A737E",
"e c #657481",
"r c #687581",
"t c #6C7A85",
"y c #707C87",
"u c #727F8B",
"i c #76838F",
"p c #79858F",
"a c #768490",
"s c #7A8691",
"d c #7C8994",
"f c #828A92",
"g c #828E98",
"h c #85919B",
"j c #89959F",
"k c #8B96A0",
"l c #8F9AA3",
"z c #939CA4",
"x c #949EA8",
"c c #97A1AA",
"v c #9BA3AC",
"b c #9FA8B0",
"n c #A2A9AC",
"m c #A2ABB3",
"M c #A9B2B9",
"N c #B3BAC0",
"B c #C1C7CC",
"V c #CFD2D6",
/* pixels */
"3qqqqeeqqeqetttqqqq4 % @    @   ",
"hiiiuaauisiiidddsssj    %  %   %",
"d o   oo OO  @%*&%@d @    % @   ",
"d            @@@*&@d  %        @",
"f  .    O   .. .%%=d%% @        ",
"s       O     ..@%*h%%@ % %  % @",
"d      .   o  ..  %d**@% % %%  @",
"d   .        . .@ @s%-*@@ o   @ ",
"d           ooo. %@e@%**%@@   % ",
"d   ooo     oo.o%% @%@%%=% @@  %",
"u   oo oo. .ooOO%%@%@@@@%-*@  % ",
"g   oooo    ooOO..@@@ @%@%**@@% ",
"do    oo  oooo&%X#$#@@@@%@%*%%@@",
"do  oOjxk+o7kd=O#8$62&jl9@5&**5;",
"d   oo,c1o4v3uhO$f<n*;h:*%v7@&i3",
"d     ojoox++Ok>Xff0%-s   db@@i5",
"a      koOkoOO7tXzz$.-aOoOg8a.r5",
"a      ko=d+O >uXV2X+>BMr.g&z>q4",
"do     ko&hOOO4uXkkX+<sOo gO>ze4",
"do     k.oxOOOu3Xff6X;sOo.gOOaz4",
"d      k %ra.1x.XpXx$1a.O.g%O%B4",
"d      a.OOdMn1..yX6w;NMt u%O 7,",
"a     o %OOO. O..XXXXX.. .@ % OO",
"d      O% oO. O..XX2XXO.@  .    ",
"d      ooooooO..O.XfX@o@ @ @  @ ",
"a     o%   oOO.O..Xf.@o   @  @@ ",
"do  ooo%   oOOoo..Xd.. @@  OO  @",
"do  oo%o   oOoo. .Xf..   @@OO% O",
"d ooo%ooo   o     .f  @@   @ OOO",
"d  @o%ooooooo    . fOo  @@@ % O.",
"d=-->,-->====>=>=>=g    %&%@OOOO",
"abmbmmbbmmmmmmmmmmmu   @**&#.OOO"
};
